<?xml version="1.0" standalone="no"?>
<!DOCTYPE svg PUBLIC "-//W3C//DTD SVG 20010904//EN"
 "http://www.w3.org/TR/2001/REC-SVG-20010904/DTD/svg10.dtd">
<svg version="1.0" xmlns="http://www.w3.org/2000/svg"
 width="1000.000000pt" height="1000.000000pt" viewBox="0 0 1000.000000 1000.000000"
 preserveAspectRatio="xMidYMid meet">
<metadata>
Created by potrace 1.15, written by Peter Selinger 2001-2017
</metadata>
<g transform="translate(0.000000,1000.000000) scale(0.100000,-0.100000)"
fill="#000000" stroke="none">
<path d="M457 5289 c-218 -51 -382 -286 -380 -544 2 -268 150 -481 383 -549
32 -10 92 -17 145 -17 l91 0 17 -48 c63 -178 213 -256 355 -185 60 30 85 67
80 121 -2 25 -11 42 -30 56 -26 19 -29 19 -70 4 -24 -10 -51 -17 -60 -17 -21
0 -70 59 -87 106 -12 33 -12 38 4 47 71 40 145 146 186 269 14 42 29 75 33 71
3 -3 6 -63 6 -132 0 -69 5 -143 10 -163 13 -45 52 -93 93 -114 38 -20 119 -20
176 1 31 11 47 12 57 4 10 -8 101 -13 197 -10 27 1 67 47 67 76 l0 27 46 -41
c122 -107 338 -95 444 25 67 77 95 195 67 285 -14 44 -13 46 4 42 17 -5 19
-16 19 -107 0 -182 19 -252 82 -299 31 -24 104 -25 147 -2 45 23 111 84 111
103 0 9 18 -2 48 -31 61 -56 96 -74 163 -85 102 -15 244 23 295 79 25 27 25
91 0 118 -17 19 -17 21 -3 21 10 0 17 -6 17 -14 0 -20 39 -46 67 -46 12 0 37
13 55 29 33 28 34 29 189 33 113 3 162 8 173 17 23 20 86 147 86 175 0 31 -28
64 -61 71 -21 5 -35 -2 -73 -34 l-47 -41 -143 0 c-130 0 -144 -2 -164 -21 -21
-19 -23 -19 -29 -2 -34 99 -67 141 -135 178 -45 25 -67 30 -145 33 -82 4 -97
2 -150 -22 -32 -15 -77 -46 -100 -69 l-43 -41 0 37 c0 52 -28 77 -85 77 l-45
0 0 125 c0 120 -1 127 -25 150 -17 18 -35 25 -63 25 -62 0 -75 -22 -82 -146
-8 -111 -16 -131 -68 -157 -25 -12 -35 -26 -46 -60 -5 -16 -12 -14 -52 22 -63
55 -126 74 -228 69 -133 -7 -222 -69 -267 -188 -23 -61 -25 -161 -4 -219 14
-42 14 -42 -8 -35 -12 3 -24 9 -27 11 -3 3 -7 85 -10 183 -4 141 -8 182 -20
194 -11 10 -47 15 -129 18 l-115 3 -21 -31 -20 -30 -15 30 c-15 31 -16 31
-102 34 l-87 3 -6 37 c-26 161 -78 274 -170 368 -66 68 -116 97 -202 119 -63
16 -234 19 -296 4z m326 -69 c118 -45 233 -187 272 -336 19 -74 19 -210 0
-292 -28 -120 -107 -241 -191 -293 -19 -11 -34 -28 -34 -38 0 -9 15 -48 34
-87 50 -106 107 -142 172 -110 48 22 64 20 64 -7 0 -41 -72 -87 -135 -87 -85
0 -155 64 -205 187 l-33 80 -78 -5 c-204 -12 -376 82 -458 250 -148 303 -15
673 269 753 81 22 247 15 323 -15z m1681 -226 c3 -9 6 -76 6 -149 l0 -134 63
-3 c59 -3 62 -4 62 -28 0 -24 -3 -25 -62 -28 l-63 -3 0 -157 c0 -86 4 -163 9
-170 8 -14 33 -5 83 30 13 9 20 9 32 -1 22 -18 20 -24 -11 -56 -60 -60 -118
-79 -165 -54 -39 21 -48 68 -48 243 l0 165 -37 3 c-32 3 -38 7 -41 28 -2 21 4
29 30 40 48 22 69 67 80 173 4 51 10 98 13 105 6 17 42 15 49 -4z m-367 -278
c47 -24 102 -82 124 -130 25 -55 25 -157 0 -211 -38 -85 -113 -134 -215 -142
-76 -6 -129 8 -184 48 -111 81 -135 243 -52 357 54 75 121 104 225 99 39 -2
84 -11 102 -21z m961 -15 c72 -37 128 -136 120 -214 l-3 -32 -180 0 -180 0 0
25 0 25 127 3 c145 3 150 7 119 77 -22 51 -50 71 -108 81 -87 14 -176 -60
-189 -158 -9 -62 9 -109 56 -152 67 -60 146 -69 232 -25 50 26 68 24 68 -5 0
-50 -102 -96 -210 -96 -179 0 -308 206 -227 361 25 47 99 110 151 127 51 18
175 9 224 -17z m-1777 -17 c4 -10 8 -94 8 -186 l1 -167 27 -21 c28 -22 44 -22
100 1 64 26 54 -29 -11 -60 -50 -25 -115 -27 -156 -6 -51 26 -61 61 -68 233
l-7 157 -37 18 c-25 11 -38 24 -38 37 0 18 6 19 87 16 74 -2 88 -6 94 -22z
m296 11 c9 -3 13 -53 15 -187 l3 -183 40 -21 c47 -24 57 -51 23 -58 -13 -3
-54 -4 -93 -3 l-70 2 -5 188 c-5 172 -7 190 -24 203 -11 8 -27 14 -37 14 -22
0 -43 26 -35 45 5 13 19 14 88 9 46 -3 89 -7 95 -9z m-167 -95 c19 0 20 -6 20
-114 l0 -114 -31 -11 c-60 -21 -59 -24 -59 139 l0 149 25 -24 c13 -14 33 -25
45 -25z m1232 27 c-20 -24 -40 -122 -35 -170 6 -47 6 -47 -25 -47 -17 0 -37
-3 -46 -6 -14 -5 -16 6 -16 89 l0 95 44 6 c24 4 52 16 61 26 20 22 34 28 17 7z
m1042 -26 c3 -5 -8 -39 -25 -75 l-31 -66 -142 0 c-155 0 -196 -9 -221 -46 -15
-24 -45 -33 -45 -14 0 5 16 39 36 75 l36 65 150 0 151 0 31 34 c31 35 50 44
60 27z"/>
<path d="M512 5175 c-156 -48 -251 -214 -252 -437 0 -190 62 -341 163 -394
l27 -15 0 38 c0 76 60 133 140 133 71 0 118 -30 189 -120 l19 -25 32 30 c43
41 87 137 101 220 16 92 6 245 -21 326 -64 193 -232 296 -398 244z m219 -80
c105 -74 152 -188 153 -370 0 -117 -15 -190 -54 -254 l-21 -34 -37 36 c-112
109 -293 102 -350 -14 l-20 -41 -31 54 c-70 122 -78 351 -17 484 28 62 86 128
135 155 29 15 52 19 118 17 72 -3 86 -6 124 -33z"/>
<path d="M529 4419 c-15 -15 -19 -30 -17 -61 3 -38 6 -43 38 -51 37 -9 125 -5
138 7 11 12 -33 79 -68 104 -41 27 -64 28 -91 1z"/>
<path d="M1935 4673 c-65 -17 -105 -86 -105 -184 0 -110 52 -184 137 -196 54
-7 108 19 140 69 39 58 44 166 11 228 -36 67 -111 101 -183 83z m108 -74 c55
-42 60 -160 11 -219 -21 -25 -33 -30 -68 -30 -44 0 -70 18 -95 67 -24 46 -10
146 26 185 23 25 93 24 126 -3z"/>
<path d="M6224 5280 c-85 -27 -175 -89 -228 -157 -79 -99 -135 -285 -124 -405
4 -35 2 -48 -8 -48 -7 0 -34 -18 -59 -40 l-46 -40 -143 0 c-127 0 -144 -2
-163 -19 -21 -20 -21 -20 -39 27 -26 68 -115 154 -183 177 -81 27 -199 18
-269 -20 -127 -69 -185 -234 -135 -381 23 -69 111 -155 180 -178 129 -43 277
-8 357 85 20 24 36 46 36 51 0 4 13 8 30 8 18 0 42 11 62 29 33 28 34 29 189
33 176 4 180 6 211 76 l20 44 27 -59 c87 -183 249 -283 457 -284 112 0 202 27
294 90 33 23 60 37 60 31 0 -23 74 -89 121 -110 61 -26 144 -28 208 -6 24 9
47 13 53 10 5 -3 49 -6 99 -6 100 0 134 14 145 59 10 40 -8 76 -49 98 l-37 20
0 141 c0 128 -2 145 -23 185 -36 68 -100 103 -198 108 -159 7 -272 -67 -239
-155 10 -25 8 -30 -19 -51 -16 -13 -39 -39 -51 -58 -14 -23 -29 -35 -44 -35
-12 0 -47 -21 -77 -47 -77 -66 -148 -97 -236 -101 -93 -5 -148 19 -204 90 -58
73 -83 165 -83 303 0 130 18 206 69 280 52 75 93 99 182 103 40 3 84 1 98 -2
44 -11 95 -67 131 -142 36 -76 58 -93 109 -85 52 8 64 41 55 159 -6 88 -8 94
-41 128 -39 40 -113 79 -190 99 -78 21 -230 18 -305 -5z m340 -60 c33 -13 78
-40 102 -62 l42 -39 0 -84 c0 -77 -2 -85 -19 -85 -13 0 -29 21 -54 73 -44 88
-75 121 -134 144 -59 23 -181 23 -233 1 -127 -56 -208 -219 -208 -423 0 -155
38 -272 115 -354 52 -55 108 -86 178 -96 93 -14 249 45 333 127 33 31 66 35
72 8 4 -23 -60 -92 -118 -130 -132 -85 -318 -93 -462 -19 -103 53 -196 182
-233 324 -19 74 -19 223 0 294 44 168 172 303 321 340 67 17 231 7 298 -19z
m586 -492 c78 -40 84 -57 90 -236 l5 -156 40 -27 c22 -15 40 -35 40 -46 0 -16
-10 -18 -88 -19 -65 0 -90 3 -94 12 -4 10 -14 9 -46 -8 -23 -11 -69 -23 -102
-26 -118 -9 -204 60 -213 174 -6 67 9 103 59 148 45 41 105 60 172 53 81 -7
146 -75 67 -69 -122 9 -128 8 -161 -24 -59 -59 -44 -159 31 -197 69 -36 160 0
180 71 13 50 12 209 -3 252 -22 63 -82 76 -165 34 -55 -27 -82 -26 -82 3 0 24
10 38 39 53 71 37 167 40 231 8z m-1913 -12 c47 -24 102 -82 124 -130 25 -55
25 -157 0 -211 -38 -85 -113 -134 -215 -142 -76 -6 -129 8 -184 48 -111 81
-135 243 -52 357 54 75 121 104 225 99 39 -2 84 -11 102 -21z m647 -115 c3 -5
-8 -39 -25 -75 l-31 -66 -142 0 c-155 0 -196 -9 -221 -46 -15 -24 -45 -33 -45
-14 0 5 16 39 36 75 l36 65 150 0 151 0 31 34 c31 35 50 44 60 27z m1170 -131
c21 -8 26 -16 26 -46 0 -21 -7 -46 -17 -56 -20 -23 -80 -24 -105 -1 -21 19
-25 82 -6 101 14 14 67 16 102 2z"/>
<path d="M5075 4673 c-65 -17 -105 -86 -105 -184 0 -110 52 -184 137 -196 54
-7 108 19 140 69 39 58 44 166 11 228 -36 67 -111 101 -183 83z m108 -74 c55
-42 60 -160 11 -219 -21 -25 -33 -30 -68 -30 -44 0 -70 18 -95 67 -24 46 -10
146 26 185 23 25 93 24 126 -3z"/>
<path d="M3699 5271 c-18 -14 -24 -29 -24 -61 0 -48 29 -80 71 -80 l24 0 0
-383 0 -384 -40 -16 c-67 -26 -77 -96 -20 -138 23 -17 47 -19 265 -19 175 0
254 4 292 14 176 47 280 178 271 339 -3 57 -1 67 12 65 12 -3 16 -24 18 -120
l3 -117 -28 -13 c-40 -19 -57 -60 -43 -102 16 -51 46 -61 181 -61 111 0 119 1
143 24 19 18 26 35 26 61 0 38 -29 80 -55 80 -11 0 -14 34 -17 184 -3 161 -5
186 -21 204 -18 19 -17 21 7 45 73 73 17 207 -85 207 -54 0 -93 -22 -113 -64
-26 -54 -18 -104 24 -146 l20 -20 -33 0 c-36 0 -77 -24 -77 -45 0 -8 -28 14
-62 49 -35 35 -71 67 -80 72 -16 9 -15 14 12 68 34 66 37 109 15 182 -20 68
-73 126 -147 163 l-61 31 -227 0 c-209 0 -230 -2 -251 -19z m483 -43 c40 -12
120 -75 138 -109 19 -35 28 -110 18 -148 -12 -43 -49 -85 -98 -111 -28 -15
-31 -19 -14 -20 38 0 143 -61 180 -103 57 -66 78 -120 78 -207 1 -66 -3 -82
-30 -130 -21 -38 -48 -67 -85 -92 -85 -59 -140 -68 -394 -68 -121 0 -226 4
-233 9 -22 14 -9 44 23 54 17 5 36 14 43 20 17 14 18 827 0 845 -7 7 -24 12
-40 12 -32 0 -54 30 -36 48 16 16 397 16 450 0z m536 -295 c52 -44 24 -123
-43 -123 -36 0 -75 36 -75 70 0 10 9 29 21 44 24 31 67 35 97 9z m2 -237 c1
-11 1 -92 0 -178 0 -90 4 -166 9 -177 6 -10 25 -24 42 -30 24 -8 30 -15 27
-33 -3 -22 -6 -23 -123 -23 l-120 0 -3 27 c-3 22 2 27 27 33 40 9 42 20 39
185 l-3 135 -32 14 c-18 8 -35 21 -38 29 -11 29 13 39 95 39 75 0 80 -1 80
-21z"/>
<path d="M3973 5174 c-43 -10 -53 -40 -53 -155 0 -143 8 -154 112 -154 127 1
198 57 198 158 0 93 -59 145 -172 152 -35 2 -73 1 -85 -1z m157 -69 c58 -30
67 -95 21 -147 -26 -30 -35 -33 -100 -36 l-71 -4 0 101 0 101 60 0 c35 0 74
-7 90 -15z"/>
<path d="M3987 4790 c-58 -18 -57 -14 -57 -251 l0 -219 28 -11 c31 -13 168 -6
224 11 56 16 120 69 146 120 31 62 31 160 -1 220 -25 48 -97 103 -155 120 -54
15 -153 21 -185 10z m198 -74 c81 -38 115 -88 115 -166 0 -119 -88 -189 -237
-190 l-83 0 0 190 0 190 78 0 c60 0 88 -5 127 -24z"/>
<path d="M8105 5040 c-15 -16 -20 -44 -25 -126 -8 -111 -16 -131 -68 -157 -25
-12 -35 -26 -46 -60 -6 -17 -9 -16 -41 12 -55 48 -94 64 -171 69 -58 4 -77 1
-113 -18 -31 -15 -46 -19 -54 -11 -7 7 -56 11 -124 11 -108 0 -115 -1 -138
-25 -46 -45 -28 -109 36 -130 44 -15 48 -38 48 -255 0 -216 -7 -253 -49 -289
-26 -21 -33 -35 -33 -61 0 -94 149 -95 221 -1 36 46 62 111 62 157 l0 36 38
-7 c155 -29 274 31 341 175 21 44 26 69 25 125 -1 39 -7 83 -13 99 -10 24 -9
27 5 22 8 -3 20 -6 25 -6 5 0 9 -46 9 -102 0 -126 15 -225 38 -257 61 -83 156
-85 250 -6 28 24 31 24 36 7 12 -36 53 -47 177 -47 111 0 119 1 143 24 17 16
26 35 26 54 l0 29 50 -45 c121 -109 320 -106 438 6 l32 31 0 -30 c0 -19 9 -39
23 -52 22 -20 36 -23 178 -26 85 -3 159 -5 164 -5 6 0 59 2 119 4 127 6 146
16 146 76 0 31 -6 43 -30 61 l-30 22 0 149 c0 167 -9 213 -51 253 -41 39 -122
45 -190 14 -46 -22 -50 -22 -67 -7 -15 13 -39 17 -115 17 -108 0 -132 -12
-144 -70 l-5 -30 -50 44 c-66 60 -127 80 -232 74 -66 -3 -91 -10 -135 -33
-103 -56 -157 -161 -148 -288 3 -40 8 -82 12 -94 6 -18 4 -21 -13 -16 -20 5
-21 14 -24 188 -3 160 -5 185 -21 203 -18 19 -17 21 7 45 73 73 17 207 -85
207 -54 0 -93 -22 -113 -64 -26 -54 -18 -104 24 -146 l20 -20 -33 0 c-18 0
-42 -6 -53 -14 -13 -10 -25 -11 -35 -5 -8 5 -33 9 -56 9 l-43 0 0 125 c0 120
-1 127 -25 150 -31 32 -93 34 -120 5z m89 -46 c3 -9 6 -76 6 -149 l0 -134 63
-3 c59 -3 62 -4 62 -28 0 -24 -3 -25 -62 -28 l-63 -3 0 -157 c0 -86 4 -163 9
-170 8 -14 33 -5 83 30 13 9 20 9 32 -1 22 -18 20 -24 -11 -56 -60 -60 -118
-79 -165 -54 -39 21 -48 68 -48 243 l0 165 -37 3 c-32 3 -38 7 -41 28 -2 21 4
29 30 40 48 22 69 67 80 173 4 51 10 98 13 105 6 17 42 15 49 -4z m384 -61
c52 -44 24 -123 -43 -123 -36 0 -75 36 -75 70 0 10 9 29 21 44 24 31 67 35 97
9z m509 -217 c47 -24 102 -82 124 -130 25 -55 25 -157 0 -211 -38 -85 -113
-134 -215 -142 -76 -6 -129 8 -184 48 -111 81 -135 243 -52 357 54 75 121 104
225 99 39 -2 84 -11 102 -21z m-1261 -5 c49 -23 107 -88 122 -140 16 -52 15
-144 -2 -185 -20 -49 -85 -116 -131 -137 -58 -27 -131 -24 -191 6 -27 14 -52
25 -56 25 -5 0 -8 -30 -8 -66 0 -91 -17 -141 -66 -191 -31 -33 -48 -43 -72
-43 -45 0 -49 17 -13 54 17 18 36 48 41 67 13 45 13 495 0 519 -6 11 -26 22
-45 26 -38 7 -60 27 -52 48 4 10 29 14 105 13 l100 0 4 -156 c3 -176 14 -208
78 -243 43 -23 88 -18 140 16 95 63 106 237 19 311 -42 35 -73 40 -122 21 -57
-22 -69 -20 -65 6 4 32 72 68 128 68 25 0 63 -9 86 -19z m1886 -6 c33 -32 38
-67 38 -251 l0 -152 30 -12 c19 -8 30 -20 30 -33 0 -18 -4 -19 -65 -13 -39 4
-83 2 -111 -5 -42 -11 -48 -10 -60 6 -17 23 -11 32 31 49 l33 14 4 149 c2 81
2 156 0 165 -8 33 -41 32 -88 -2 -73 -52 -103 -19 -39 44 73 70 152 86 197 41z
m-1132 -9 c1 -11 1 -92 0 -178 0 -90 4 -166 9 -177 6 -10 25 -24 42 -30 24 -8
30 -15 27 -33 -3 -22 -6 -23 -123 -23 l-120 0 -3 27 c-3 22 2 27 27 33 40 9
42 20 39 185 l-3 135 -32 14 c-18 8 -35 21 -38 29 -11 29 13 39 95 39 75 0 80
-1 80 -21z m886 -32 c3 -29 5 -119 3 -201 l-4 -148 38 -18 c26 -12 37 -23 35
-35 -3 -15 -18 -17 -128 -17 l-125 0 0 25 c0 18 6 26 21 28 49 7 55 28 52 188
l-3 149 -32 14 c-18 8 -35 21 -38 29 -11 29 13 39 95 39 l79 0 7 -53z m-1068
-50 l32 -15 0 -115 c0 -110 -1 -115 -22 -123 -17 -6 -25 -4 -29 8 -13 32 -38
44 -84 39 l-45 -6 0 93 0 93 44 6 c24 4 50 14 56 21 15 18 10 18 48 -1z m-632
-21 c31 -31 46 -83 39 -132 -14 -95 -116 -147 -165 -84 -18 23 -20 38 -18 116
l3 89 35 13 c50 18 86 17 106 -2z m1824 -132 c0 -107 -2 -119 -19 -124 -42
-11 -51 8 -51 106 l1 92 32 22 c18 11 33 22 35 22 1 1 2 -52 2 -118z"/>
<path d="M8925 4673 c-65 -17 -105 -86 -105 -184 0 -110 52 -184 137 -196 54
-7 108 19 140 69 39 58 44 166 11 228 -36 67 -111 101 -183 83z m108 -74 c55
-42 60 -160 11 -219 -21 -25 -33 -30 -68 -30 -44 0 -70 18 -95 67 -24 46 -10
146 26 185 23 25 93 24 126 -3z"/>
</g>
</svg>
